<svg width="180" height="180" viewBox="0 0 180 180" fill="none" xmlns="http://www.w3.org/2000/svg">
<path d="M180 90C180 139.706 139.706 180 90 180C40.2944 180 0 139.706 0 90C0 40.2944 40.2944 0 90 0C139.706 0 180 40.2944 180 90Z" fill="#FBFBFB"/>
<path d="M145.501 120.51H37V103.314H84.4949V68.5114H132.809C143.29 68.5114 145.638 80.2486 145.501 86.1172V120.51Z" fill="#0F7951"/>
<path d="M77.5344 84.0701C77.5344 92.4368 70.7519 99.2194 62.3852 99.2194C54.0185 99.2194 47.236 92.4368 47.236 84.0701C47.236 75.7034 54.0185 68.9209 62.3852 68.9209C70.7519 68.9209 77.5344 75.7034 77.5344 84.0701Z" fill="#0F7951"/>
</svg>
