<svg width="180" height="180" viewBox="0 0 180 180" fill="none" xmlns="http://www.w3.org/2000/svg">
<path d="M180 90C180 139.706 139.706 180 90 180C40.2944 180 0 139.706 0 90C0 40.2944 40.2944 0 90 0C139.706 0 180 40.2944 180 90Z" fill="#FBFBFB"/>
<path d="M122.109 132.549V119.382H55.8086V132.549C54.8682 134.273 51.5767 137.721 45.9341 137.721C40.2915 137.721 37.627 134.273 37 132.549V84.1164L45.9341 76.1227C50.8243 50.9192 61.7646 43.6779 66.6235 43.2077C78.3789 43.051 104.429 42.8315 114.585 43.2077C124.742 43.5839 131.356 65.3078 133.394 76.1227L142.798 84.1164V132.549C142.328 134.273 139.789 137.721 133.394 137.721C126.999 137.721 123.206 134.273 122.109 132.549Z" fill="#0F7951"/>
<path d="M119.288 75.1824H60.0405C63.0499 63.1449 66.6235 58.2547 68.0342 57.3142H111.294C114.679 60.6998 118.034 70.637 119.288 75.1824Z" fill="#FBFBFB"/>
<path d="M123.52 94.4612C123.52 98.0969 120.572 101.044 116.936 101.044C113.301 101.044 110.353 98.0969 110.353 94.4612C110.353 90.8255 113.301 87.8782 116.936 87.8782C120.572 87.8782 123.52 90.8255 123.52 94.4612Z" fill="#FBFBFB"/>
<path d="M68.9746 94.4612C68.9746 98.0969 66.0273 101.044 62.3916 101.044C58.7559 101.044 55.8086 98.0969 55.8086 94.4612C55.8086 90.8255 58.7559 87.8782 62.3916 87.8782C66.0273 87.8782 68.9746 90.8255 68.9746 94.4612Z" fill="#FBFBFB"/>
</svg>
