<svg width="279" height="279" viewBox="0 0 279 279" fill="none" xmlns="http://www.w3.org/2000/svg">
<rect x="5" y="5" width="269" height="269" rx="134.5" stroke="white" stroke-width="10"/>
<path d="M120.423 144.89C111.881 142.53 102.627 122.276 99.0676 112.444H70C71.1864 115.787 77.8305 129.67 94.9151 158.458C112 187.246 138.813 186.971 150.084 183.235C148.186 177.571 152.457 169.863 154.83 166.717C166.694 168.133 175.988 178.319 179.152 183.235C202.406 182.763 205.847 181.072 204.66 180.285C204.66 173.796 185.677 159.048 183.898 152.559C182.118 146.07 196.948 130.732 201.694 122.473C205.491 115.866 205.254 113.034 204.66 112.444H174.406C166.694 131.911 153.05 149.019 150.084 144.89C147.711 141.586 147.514 120.31 147.711 110.085C144.389 106.309 128.135 108.512 120.423 110.085C127.542 126.602 123.39 140.17 120.423 144.89Z" fill="white"/>
</svg>
